<!DOCTYPE svg PUBLIC "-//W3C//DTD SVG 1.1//EN" "http://www.w3.org/Graphics/SVG/1.1/DTD/svg11.dtd">
<!-- Uploaded to: SVG Repo, www.svgrepo.com, Transformed by: SVG Repo Mixer Tools -->
<svg width="256px" height="256px" viewBox="0 0 48.00 48.00" id="a" xmlns="http://www.w3.org/2000/svg" fill="#ffffff" stroke="#ffffff" stroke-width="1.7280000000000002">
<g id="SVGRepo_bgCarrier" stroke-width="0"/>
<g id="SVGRepo_tracerCarrier" stroke-linecap="round" stroke-linejoin="round" stroke="#CCCCCC" stroke-width="1.7280000000000002"> <defs> <style>.g{fill:none;stroke:#ffffff;stroke-linecap:round;stroke-linejoin:round;}</style> </defs> <g> <circle id="b" class="g" cx="9.9194" cy="23.9644" r="2.7702"/> <path id="c" class="g" d="m9.6559,17.8441h14.1586c3.4104,0,6.1559,2.7455,6.1559,6.1559v6.1559H9.6559c-3.4104,0-6.1559-2.7456-6.1559-6.1559s2.7455-6.1559,6.1559-6.1559Z"/> <circle id="d" class="g" cx="23.6769" cy="23.9644" r="2.7702"/> </g> <g> <circle id="e" class="g" cx="38.2466" cy="24" r="2.6382"/> <path id="f" class="g" d="m44.5,24c0,3.3998-2.7561,6.1559-6.1559,6.1559h-6.1559v-6.1559c0-3.3998,2.7561-6.1559,6.1559-6.1559s6.1559,2.7561,6.1559,6.1559Z"/> </g> </g>
<g id="SVGRepo_iconCarrier"> <defs> <style>.g{fill:none;stroke:#ffffff;stroke-linecap:round;stroke-linejoin:round;}</style> </defs> <g> <circle id="b" class="g" cx="9.9194" cy="23.9644" r="2.7702"/> <path id="c" class="g" d="m9.6559,17.8441h14.1586c3.4104,0,6.1559,2.7455,6.1559,6.1559v6.1559H9.6559c-3.4104,0-6.1559-2.7456-6.1559-6.1559s2.7455-6.1559,6.1559-6.1559Z"/> <circle id="d" class="g" cx="23.6769" cy="23.9644" r="2.7702"/> </g> <g> <circle id="e" class="g" cx="38.2466" cy="24" r="2.6382"/> <path id="f" class="g" d="m44.5,24c0,3.3998-2.7561,6.1559-6.1559,6.1559h-6.1559v-6.1559c0-3.3998,2.7561-6.1559,6.1559-6.1559s6.1559,2.7561,6.1559,6.1559Z"/> </g> </g>
</svg>