<svg xmlns="http://www.w3.org/2000/svg" width="1177" height="1245" viewBox="0 0 1177 1245" version="1.1"><path d="M 370 20.980 C 169.207 27.958, 39.826 72.165, 90.466 116.492 C 105.899 130.001, 113.910 133.476, 109.522 124.757 C 96.488 98.860, 110.129 84.382, 160.688 70.449 C 365.614 13.975, 852 68.776, 852 148.338 C 852 153.088, 868.952 139.782, 873.083 131.790 C 886.113 106.576, 830.188 74.390, 735.500 52.609 C 685.286 41.058, 618.056 31.183, 557.451 26.456 C 488.724 21.096, 422.404 19.159, 370 20.980" stroke="none" fill="#ffffff" fill-rule="evenodd"/><path d="M 128.944 162.143 C 128.889 162.498, 128.166 185.541, 126.048 254.500 C 125.439 274.300, 124.457 302.425, 123.864 317 C 123.271 331.575, 122.610 364.875, 122.395 391 C 121.883 453.338, 121.361 463.550, 114.043 554.500 C 106.515 648.064, 103.418 701.664, 100.061 796.500 C 97.404 871.533, 97.988 1022.922, 101.016 1044.500 C 105.300 1075.018, 130.030 1113.676, 151.666 1123.672 C 183.164 1138.225, 254.497 1152.279, 311 1155.063 C 322.825 1155.646, 338.125 1156.457, 345 1156.867 C 351.875 1157.276, 359.075 1157.220, 361 1156.742 C 366.444 1155.390, 505.496 1153.982, 671.500 1153.599 C 845.589 1153.198, 825.978 1154.869, 833.324 1139.812 C 852.244 1101.032, 862.302 1048.442, 864.942 974.500 C 865.848 949.129, 866.171 926.169, 867.548 789.500 C 868.131 731.591, 870.298 642.247, 871.998 606 C 875.387 533.781, 875.839 477.314, 873.516 416.500 C 868.389 282.265, 868.108 236.288, 872.074 180.649 C 873.329 163.029, 874.003 164.251, 865.452 168.638 C 725.295 240.556, 312.011 237.107, 130.750 162.506 C 129.787 162.110, 128.975 161.947, 128.944 162.143 M 942 333.049 C 931.886 333.956, 913.660 338.255, 903.087 342.228 L 896.673 344.637 896.781 370.569 C 896.922 404.424, 896.884 403.189, 897.750 402.656 C 898.163 402.401, 903.675 401.663, 910 401.014 C 1037.235 387.968, 1129.303 546.441, 1094.445 718.490 C 1092.997 725.635, 1091.405 732.243, 1090.907 733.175 C 1090.408 734.106, 1090 735.754, 1090 736.837 C 1090 745.189, 1071.250 792.033, 1060.315 811 C 1051.791 825.786, 1049.703 828.996, 1040.881 840.885 C 1002.912 892.052, 948.580 921.622, 898.489 918.384 C 885.933 917.572, 887.141 914.149, 886.971 951 C 886.899 966.675, 886.763 983.547, 886.670 988.493 L 886.500 997.486 894.500 999.250 C 999.188 1022.341, 1120.362 894.863, 1149.009 731.500 C 1153.369 706.637, 1154.483 698.681, 1156.079 681 C 1173.930 483.247, 1074.225 321.193, 942 333.049 M 461.364 392.221 C 458.116 393.716, 456.783 397.487, 457.966 401.833 C 458.931 405.378, 466.020 414.135, 541.813 505.413 C 553.191 519.115, 568.864 538.015, 576.642 547.413 C 633.042 615.560, 622.739 611.525, 651.627 576.780 C 663.188 562.876, 697.363 521.851, 727.573 485.613 C 757.783 449.376, 784.467 417.201, 786.872 414.113 C 789.277 411.026, 792.338 407.200, 793.674 405.611 C 796.879 401.802, 796.570 396.451, 793 393.941 C 790.079 391.888, 465.743 390.205, 461.364 392.221 M 247.500 396.139 L 200.500 396.958 197.764 399.979 C 196.259 401.641, 194.347 403, 193.514 403 C 191.011 403, 188 406.803, 188 409.965 C 188 412.361, 192.273 418.064, 210.287 439.715 C 222.546 454.447, 243.792 480, 257.503 496.500 C 271.213 513, 305.820 554.625, 334.408 589 C 362.995 623.375, 392.923 659.375, 400.913 669 C 408.904 678.625, 440.887 717.100, 471.987 754.500 C 503.087 791.900, 540.675 837.115, 555.516 854.979 C 570.357 872.842, 593.010 900.067, 605.855 915.479 C 618.700 930.890, 630.227 945.082, 631.469 947.015 C 635.818 953.781, 629.909 953.462, 707.251 951.117 C 745.888 949.945, 780.723 948.870, 784.662 948.728 C 798.108 948.243, 799.685 942.882, 789.693 931.613 C 786.225 927.701, 773.491 912.575, 761.397 898 C 749.302 883.425, 723.700 852.600, 704.502 829.500 C 685.305 806.400, 657.630 773.100, 643.003 755.500 C 628.377 737.900, 604.073 708.650, 588.996 690.500 C 573.919 672.350, 544.934 637.475, 524.586 613 C 443.015 514.888, 386.442 446.769, 365.129 421 C 357.168 411.375, 348.838 401.587, 346.619 399.250 L 342.584 395 318.542 395.160 C 305.319 395.248, 273.350 395.688, 247.500 396.139 M 349.196 734.750 C 348.082 735.712, 335.994 749.825, 322.335 766.112 C 294.001 799.897, 267.591 831.326, 219.572 888.408 C 171.285 945.808, 152.760 938.807, 355.176 939.659 C 556.089 940.505, 540.274 954.431, 455.169 851.606 C 436.692 829.281, 405.992 792.106, 381.996 763 C 354.563 729.724, 354.789 729.918, 349.196 734.750" stroke="none" fill="#1578e4" fill-rule="evenodd"/><path d="M 405.750 19.748 C 413.587 19.917, 426.412 19.917, 434.250 19.748 C 442.087 19.579, 435.675 19.441, 420 19.441 C 404.325 19.441, 397.912 19.579, 405.750 19.748 M 462.728 199.722 C 464.503 199.943, 467.653 199.946, 469.728 199.730 C 471.802 199.513, 470.350 199.333, 466.500 199.328 C 462.650 199.324, 460.952 199.501, 462.728 199.722 M 594.750 199.723 C 596.538 199.945, 599.462 199.945, 601.250 199.723 C 603.038 199.502, 601.575 199.320, 598 199.320 C 594.425 199.320, 592.962 199.502, 594.750 199.723 M 494.250 200.743 C 498.512 200.931, 505.488 200.931, 509.750 200.743 C 514.013 200.556, 510.525 200.402, 502 200.402 C 493.475 200.402, 489.988 200.556, 494.250 200.743 M 557.250 200.742 C 560.962 200.934, 567.038 200.934, 570.750 200.742 C 574.462 200.549, 571.425 200.392, 564 200.392 C 556.575 200.392, 553.538 200.549, 557.250 200.742 M 459.890 394.110 C 457.755 396.245, 457.761 402.691, 459.902 405.450 C 460.916 406.758, 576.457 546.156, 602.699 577.732 C 627.961 608.129, 625.067 607.639, 644.130 584.746 C 651.570 575.811, 685.747 534.781, 720.079 493.568 C 801.567 395.747, 797.541 401.001, 794.531 396.406 C 791.601 391.934, 794.122 392, 624.935 392 L 462 392 459.890 394.110 M 237.854 396.946 C 198.886 397.535, 197 397.799, 197 402.655 C 197 403.395, 195.961 404, 194.691 404 C 191.165 404, 188.667 406.346, 188.667 409.659 C 188.667 412.076, 198.359 424.256, 243.093 478.050 C 346.103 601.924, 449.541 726.346, 470 750.989 C 481.275 764.569, 510.075 799.224, 534 827.998 C 579.778 883.055, 631.662 945.800, 634.852 949.961 L 636.739 952.422 713.591 950.128 C 755.860 948.866, 791.234 947.410, 792.199 946.894 C 797.517 944.048, 796.581 940.191, 788.336 930.978 C 785.126 927.391, 761.575 899.267, 736 868.481 C 710.425 837.694, 673.750 793.563, 654.500 770.411 C 635.250 747.260, 604.395 710.134, 585.934 687.909 C 555.562 651.346, 521.512 610.371, 441.001 513.500 C 425.917 495.350, 398.068 461.825, 379.116 439 C 360.164 416.175, 344.173 397.169, 343.579 396.765 C 342.418 395.975, 296.913 396.053, 237.854 396.946 M 482.015 404.592 C 482.023 405.091, 484.655 408.650, 487.863 412.500 C 493.875 419.715, 527.356 459.693, 587.834 531.873 C 606.900 554.629, 623.443 574.395, 624.595 575.798 L 626.691 578.350 668.951 528.925 C 692.193 501.741, 725.378 462.928, 742.695 442.673 C 760.011 422.418, 774.016 405.683, 773.818 405.485 C 772.970 404.637, 482.001 403.747, 482.015 404.592 M 261.221 409.032 C 237.417 409.413, 217.697 409.969, 217.399 410.268 C 217.100 410.567, 229.127 425.591, 244.126 443.656 C 288.990 497.690, 308.649 521.376, 326.998 543.500 C 336.577 555.050, 354.134 576.200, 366.013 590.500 C 384.548 612.814, 421.042 656.782, 537.409 797 C 578.899 846.994, 587.673 857.571, 617.459 893.500 C 633.873 913.300, 647.387 929.615, 647.490 929.755 C 647.592 929.895, 668.111 929.123, 693.088 928.039 C 758.962 925.181, 766 924.823, 766 924.330 C 766 924.086, 748.713 903.099, 727.584 877.693 C 706.455 852.287, 664.267 801.531, 633.834 764.902 C 519.848 627.713, 455.835 550.695, 399.616 483.098 C 367.780 444.819, 340.808 412.262, 339.678 410.750 L 337.624 408 321.062 408.170 C 311.953 408.263, 285.024 408.651, 261.221 409.032 M 349.228 735.750 C 348.132 736.712, 331.753 755.950, 312.830 778.500 C 258.958 842.699, 215.817 894.022, 200.784 911.800 C 187.015 928.082, 185.404 930.937, 187.829 934.758 C 190.389 938.789, 192.558 938.843, 357.669 938.958 L 515.839 939.068 517.419 936.812 C 519.934 933.222, 519.303 930.448, 514.683 924.789 C 512.308 921.880, 495.095 901.012, 476.433 878.416 C 457.770 855.820, 424.540 815.545, 402.589 788.916 C 351.898 727.424, 355.090 730.604, 349.228 735.750 M 312.320 805.250 C 288.256 833.987, 257.321 870.920, 243.577 887.322 C 229.832 903.725, 218.008 917.972, 217.299 918.983 C 215.565 921.459, 220.794 921.780, 274.500 922.488 C 297.600 922.792, 357.389 923.731, 407.365 924.573 C 457.341 925.414, 498.420 925.913, 498.653 925.680 C 498.886 925.447, 476.062 897.412, 447.934 863.379 C 419.806 829.345, 387.803 790.587, 376.816 777.250 C 365.829 763.913, 356.668 753, 356.457 753 C 356.246 753, 336.385 776.513, 312.320 805.250" stroke="none" fill="#693107" fill-rule="evenodd"/><path d="M 382.728 20.722 C 384.503 20.943, 387.653 20.946, 389.728 20.730 C 391.802 20.513, 390.350 20.333, 386.500 20.328 C 382.650 20.324, 380.952 20.501, 382.728 20.722 M 498.750 22.723 C 500.538 22.945, 503.462 22.945, 505.250 22.723 C 507.038 22.502, 505.575 22.320, 502 22.320 C 498.425 22.320, 496.962 22.502, 498.750 22.723 M 381.750 47.746 C 387.387 47.924, 396.613 47.924, 402.250 47.746 C 407.887 47.568, 403.275 47.422, 392 47.422 C 380.725 47.422, 376.113 47.568, 381.750 47.746 M 651.250 405.750 C 673.663 405.900, 710.338 405.900, 732.750 405.750 C 755.163 405.600, 736.825 405.477, 692 405.477 C 647.175 405.477, 628.837 405.600, 651.250 405.750 M 324.802 791.660 C 307.404 812.472, 284.493 839.850, 273.889 852.500 C 212.279 925.998, 217.452 919.423, 220.640 920.171 C 289.605 936.357, 496.113 922.858, 479.842 903.228 C 470.304 891.721, 457.334 876.050, 451.020 868.403 C 444.706 860.756, 430.756 843.890, 420.020 830.921 C 394.835 800.499, 360.714 759.163, 358.309 756.160 L 356.435 753.819 324.802 791.660" stroke="none" fill="#e1bd9d" fill-rule="evenodd"/><path d="M 405.750 19.748 C 413.587 19.917, 426.412 19.917, 434.250 19.748 C 442.087 19.579, 435.675 19.441, 420 19.441 C 404.325 19.441, 397.912 19.579, 405.750 19.748 M 462.728 199.722 C 464.503 199.943, 467.653 199.946, 469.728 199.730 C 471.802 199.513, 470.350 199.333, 466.500 199.328 C 462.650 199.324, 460.952 199.501, 462.728 199.722 M 594.750 199.723 C 596.538 199.945, 599.462 199.945, 601.250 199.723 C 603.038 199.502, 601.575 199.320, 598 199.320 C 594.425 199.320, 592.962 199.502, 594.750 199.723 M 494.250 200.743 C 498.512 200.931, 505.488 200.931, 509.750 200.743 C 514.013 200.556, 510.525 200.402, 502 200.402 C 493.475 200.402, 489.988 200.556, 494.250 200.743 M 557.250 200.742 C 560.962 200.934, 567.038 200.934, 570.750 200.742 C 574.462 200.549, 571.425 200.392, 564 200.392 C 556.575 200.392, 553.538 200.549, 557.250 200.742 M 459.890 394.110 C 457.755 396.245, 457.761 402.691, 459.902 405.450 C 460.916 406.758, 576.457 546.156, 602.699 577.732 C 627.961 608.129, 625.067 607.639, 644.130 584.746 C 651.570 575.811, 685.747 534.781, 720.079 493.568 C 801.567 395.747, 797.541 401.001, 794.531 396.406 C 791.601 391.934, 794.122 392, 624.935 392 L 462 392 459.890 394.110 M 237.854 396.946 C 198.886 397.535, 197 397.799, 197 402.655 C 197 403.395, 195.961 404, 194.691 404 C 191.165 404, 188.667 406.346, 188.667 409.659 C 188.667 412.076, 198.359 424.256, 243.093 478.050 C 346.103 601.924, 449.541 726.346, 470 750.989 C 481.275 764.569, 510.075 799.224, 534 827.998 C 579.778 883.055, 631.662 945.800, 634.852 949.961 L 636.739 952.422 713.591 950.128 C 755.860 948.866, 791.234 947.410, 792.199 946.894 C 797.517 944.048, 796.581 940.191, 788.336 930.978 C 785.126 927.391, 761.575 899.267, 736 868.481 C 710.425 837.694, 673.750 793.563, 654.500 770.411 C 635.250 747.260, 604.395 710.134, 585.934 687.909 C 555.562 651.346, 521.512 610.371, 441.001 513.500 C 425.917 495.350, 398.068 461.825, 379.116 439 C 360.164 416.175, 344.173 397.169, 343.579 396.765 C 342.418 395.975, 296.913 396.053, 237.854 396.946 M 482.015 404.592 C 482.023 405.091, 484.655 408.650, 487.863 412.500 C 493.875 419.715, 527.356 459.693, 587.834 531.873 C 606.900 554.629, 623.443 574.395, 624.595 575.798 L 626.691 578.350 668.951 528.925 C 692.193 501.741, 725.378 462.928, 742.695 442.673 C 760.011 422.418, 774.016 405.683, 773.818 405.485 C 772.970 404.637, 482.001 403.747, 482.015 404.592 M 261.221 409.032 C 237.417 409.413, 217.697 409.969, 217.399 410.268 C 217.100 410.567, 229.127 425.591, 244.126 443.656 C 288.990 497.690, 308.649 521.376, 326.998 543.500 C 336.577 555.050, 354.134 576.200, 366.013 590.500 C 384.548 612.814, 421.042 656.782, 537.409 797 C 578.899 846.994, 587.673 857.571, 617.459 893.500 C 633.873 913.300, 647.387 929.615, 647.490 929.755 C 647.592 929.895, 668.111 929.123, 693.088 928.039 C 758.962 925.181, 766 924.823, 766 924.330 C 766 924.086, 748.713 903.099, 727.584 877.693 C 706.455 852.287, 664.267 801.531, 633.834 764.902 C 519.848 627.713, 455.835 550.695, 399.616 483.098 C 367.780 444.819, 340.808 412.262, 339.678 410.750 L 337.624 408 321.062 408.170 C 311.953 408.263, 285.024 408.651, 261.221 409.032 M 349.228 735.750 C 348.132 736.712, 331.753 755.950, 312.830 778.500 C 258.958 842.699, 215.817 894.022, 200.784 911.800 C 187.015 928.082, 185.404 930.937, 187.829 934.758 C 190.389 938.789, 192.558 938.843, 357.669 938.958 L 515.839 939.068 517.419 936.812 C 519.934 933.222, 519.303 930.448, 514.683 924.789 C 512.308 921.880, 495.095 901.012, 476.433 878.416 C 457.770 855.820, 424.540 815.545, 402.589 788.916 C 351.898 727.424, 355.090 730.604, 349.228 735.750 M 312.320 805.250 C 288.256 833.987, 257.321 870.920, 243.577 887.322 C 229.832 903.725, 218.008 917.972, 217.299 918.983 C 215.565 921.459, 220.794 921.780, 274.500 922.488 C 297.600 922.792, 357.389 923.731, 407.365 924.573 C 457.341 925.414, 498.420 925.913, 498.653 925.680 C 498.886 925.447, 476.062 897.412, 447.934 863.379 C 419.806 829.345, 387.803 790.587, 376.816 777.250 C 365.829 763.913, 356.668 753, 356.457 753 C 356.246 753, 336.385 776.513, 312.320 805.250" stroke="none" fill="#693107" fill-rule="evenodd"/><path d="M 486.542 409.624 C 488.719 412.338, 508.725 436.327, 531 462.933 C 553.275 489.539, 583.583 525.751, 598.350 543.404 C 613.118 561.057, 625.548 575.870, 625.972 576.321 C 626.396 576.773, 632.088 570.919, 638.621 563.312 C 649.592 550.538, 713.062 476.281, 754.278 428 L 771.778 407.500 739.639 407 C 721.962 406.725, 664.750 406.384, 612.500 406.241 C 560.250 406.099, 509.644 405.692, 500.042 405.336 L 482.583 404.690 486.542 409.624 M 273.280 409.736 C 275.909 409.943, 279.959 409.940, 282.280 409.731 C 284.601 409.521, 282.450 409.352, 277.500 409.355 C 272.550 409.358, 270.651 409.530, 273.280 409.736" stroke="none" fill="#cc9769" fill-rule="evenodd"/><path d="M 568.250 405.747 C 574.712 405.921, 585.288 405.921, 591.750 405.747 C 598.212 405.573, 592.925 405.430, 580 405.430 C 567.075 405.430, 561.788 405.573, 568.250 405.747 M 747.500 406 L 721.500 406.551 747.191 406.775 C 763.486 406.918, 773.108 406.634, 773.500 406 C 773.840 405.450, 773.979 405.101, 773.809 405.225 C 773.639 405.348, 761.800 405.697, 747.500 406 M 254.332 409.957 C 218.469 410.527, 217.451 410.657, 220.668 414.254 C 221.772 415.489, 231.437 427.075, 242.143 440 C 260.291 461.907, 279.225 484.729, 339.628 557.500 C 352.867 573.450, 373.029 597.750, 384.432 611.500 C 407.359 639.146, 431.879 668.686, 491.505 740.500 C 513.425 766.900, 541.816 801.100, 554.597 816.500 C 567.378 831.900, 592.777 862.500, 611.039 884.500 C 629.302 906.500, 645.066 925.544, 646.071 926.820 L 647.897 929.139 687.699 927.530 C 736.199 925.569, 764.138 924.213, 764.472 923.806 C 764.610 923.638, 759.273 916.968, 752.611 908.984 C 739.539 893.315, 686.974 830.090, 634.985 767.500 C 617.167 746.050, 589.314 712.525, 573.089 693 C 556.863 673.475, 530.313 641.525, 514.089 622 C 497.865 602.475, 473.747 573.450, 460.493 557.500 C 360.017 436.584, 342.209 415.126, 340 412.304 L 337.500 409.111 313 409.263 C 299.525 409.346, 273.124 409.659, 254.332 409.957" stroke="none" fill="#e6b986" fill-rule="evenodd"/><path d="M 337.456 48.979 C 201.043 54.301, 108.486 76.769, 105.265 105.343 C 104.239 114.444, 112.299 132.542, 118.405 134.847 L 121.374 135.968 117.797 132.234 C 91.506 104.789, 132.451 77.194, 220.555 62.979 C 262.246 56.253, 265.011 56.254, 268.497 62.994 C 272.949 71.603, 267.631 76.116, 250.352 78.395 C 181.994 87.411, 124.115 106.281, 131.205 117.240 C 135.928 124.540, 160.951 134.773, 188.200 140.547 C 202.876 143.657, 207.314 156.649, 195.054 160.613 C 186.310 163.441, 273.672 180.985, 333.500 188.417 C 530.993 212.950, 757.185 198.562, 841.835 156.083 L 851.837 151.063 850.419 144.982 C 848.458 136.578, 847.001 134.137, 840.230 127.911 C 787.842 79.747, 541.222 41.029, 337.456 48.979 M 338.500 50.697 C 336.300 50.904, 325.059 51.947, 313.520 53.014 C 287.697 55.401, 282.908 58.121, 287.024 68.059 C 289.620 74.325, 291.539 74.551, 321.100 72.068 C 352.273 69.449, 354 68.813, 354 59.965 C 354 53.400, 347.985 49.803, 338.500 50.697 M 525.250 404.750 C 549.313 404.899, 588.688 404.899, 612.750 404.750 C 636.813 404.601, 617.125 404.478, 569 404.478 C 520.875 404.478, 501.188 404.601, 525.250 404.750 M 308.784 408.738 C 311.689 408.941, 316.189 408.939, 318.784 408.734 C 321.378 408.528, 319 408.363, 313.500 408.365 C 308 408.368, 305.878 408.536, 308.784 408.738 M 241.287 409.740 C 244.469 409.939, 249.419 409.937, 252.287 409.736 C 255.154 409.535, 252.550 409.372, 246.500 409.374 C 240.450 409.376, 238.104 409.541, 241.287 409.740 M 229.250 921.739 C 232.412 921.937, 237.588 921.937, 240.750 921.739 C 243.912 921.541, 241.325 921.378, 235 921.378 C 228.675 921.378, 226.088 921.541, 229.250 921.739 M 289.287 922.740 C 292.469 922.939, 297.419 922.937, 300.287 922.736 C 303.154 922.535, 300.550 922.372, 294.500 922.374 C 288.450 922.376, 286.104 922.541, 289.287 922.740 M 348.287 923.740 C 351.469 923.939, 356.419 923.937, 359.287 923.736 C 362.154 923.535, 359.550 923.372, 353.500 923.374 C 347.450 923.376, 345.104 923.541, 348.287 923.740 M 409.250 924.735 C 411.863 924.941, 416.137 924.941, 418.750 924.735 C 421.363 924.529, 419.225 924.360, 414 924.360 C 408.775 924.360, 406.637 924.529, 409.250 924.735 M 469.776 925.733 C 472.128 925.945, 475.728 925.942, 477.776 925.727 C 479.824 925.512, 477.900 925.339, 473.500 925.343 C 469.100 925.346, 467.424 925.522, 469.776 925.733" stroke="none" fill="#8e6649" fill-rule="evenodd"/><path d="M 338.500 50.697 C 336.300 50.904, 325.059 51.947, 313.520 53.014 C 287.697 55.401, 282.908 58.121, 287.024 68.059 C 289.620 74.325, 291.539 74.551, 321.100 72.068 C 352.273 69.449, 354 68.813, 354 59.965 C 354 53.400, 347.985 49.803, 338.500 50.697 M 255.500 57.699 C 138.310 73.308, 84.247 103.378, 119.223 133.496 C 132.948 145.316, 192.826 164.265, 198.505 158.586 C 206.774 150.317, 201.712 143.542, 184.335 139.619 C 152.862 132.515, 127.567 120.414, 130.956 114.083 C 137.544 101.773, 188.433 86.562, 250.352 78.395 C 264.509 76.528, 268.248 74.701, 269.490 69.046 C 270.633 63.840, 264.101 56.227, 259.282 57.150 C 258.852 57.232, 257.150 57.479, 255.500 57.699 M 326.250 408.728 C 328.313 408.944, 331.688 408.944, 333.750 408.728 C 335.813 408.513, 334.125 408.336, 330 408.336 C 325.875 408.336, 324.188 408.513, 326.250 408.728 M 259.750 409.723 C 261.538 409.945, 264.462 409.945, 266.250 409.723 C 268.038 409.502, 266.575 409.320, 263 409.320 C 259.425 409.320, 257.962 409.502, 259.750 409.723 M 484.250 925.728 C 486.313 925.944, 489.688 925.944, 491.750 925.728 C 493.813 925.513, 492.125 925.336, 488 925.336 C 483.875 925.336, 482.188 925.513, 484.250 925.728" stroke="none" fill="#b98156" fill-rule="evenodd"/><path d="M 370 20.980 C 169.207 27.958, 39.826 72.165, 90.466 116.492 C 105.899 130.001, 113.910 133.476, 109.522 124.757 C 96.488 98.860, 110.129 84.382, 160.688 70.449 C 365.614 13.975, 852 68.776, 852 148.338 C 852 153.088, 868.952 139.782, 873.083 131.790 C 886.113 106.576, 830.188 74.390, 735.500 52.609 C 685.286 41.058, 618.056 31.183, 557.451 26.456 C 488.724 21.096, 422.404 19.159, 370 20.980" stroke="none" fill="#ffffff" fill-rule="evenodd"/><path d="M 370.500 0.656 C 190.344 7.463, 61.568 43.290, 48.972 90.109 C 48.322 92.524, 47.115 95.807, 46.289 97.406 C 45.324 99.273, 43.939 109.278, 42.412 125.406 C 41.105 139.207, 39.535 154.775, 38.924 160 C 35.922 185.642, 34.884 196.705, 33.010 223 C 31.894 238.675, 30.546 262.750, 30.016 276.500 C 28.306 320.894, 27.054 347.782, 25.057 383 C 22.412 429.643, 21.103 464.020, 20.449 504 C 20.147 522.425, 19.489 543.125, 18.985 550 C 17.289 573.130, 15.965 610.185, 15 661.500 C 14.472 689.550, 13.574 720.150, 13.004 729.500 C 9.557 785.993, 9.581 941.862, 13.046 1004 C 20.151 1131.420, 40.290 1177.093, 104 1210.275 C 134.735 1226.282, 153.372 1230.909, 199.500 1233.981 C 208.300 1234.567, 218.425 1235.456, 222 1235.956 C 225.575 1236.456, 234.575 1237.146, 242 1237.489 C 249.425 1237.833, 273.950 1239.315, 296.500 1240.783 C 360.367 1244.941, 510.521 1244.242, 578.120 1239.471 C 616.501 1236.763, 639.139 1236.136, 670 1236.928 C 821.916 1240.828, 874.512 1189.917, 883.591 1030.178 C 884.266 1018.310, 884.369 1017.876, 886.396 1018.382 C 1007.131 1048.538, 1135.079 922.892, 1170.386 739.500 C 1219.090 486.523, 1078.347 261.510, 907.104 318.578 C 901.387 320.483, 896.535 321.868, 896.323 321.656 C 895.581 320.915, 895.565 186.309, 896.305 166 C 897.112 143.831, 897.542 139.934, 899.636 135.794 C 906.555 122.121, 886.273 92.474, 858.500 75.667 C 777.356 26.562, 561.801 -6.572, 370.500 0.656 M 382.500 19.592 C 130.829 27.955, 7.794 83.662, 122.312 137.398 C 292.233 217.131, 747.117 223.026, 859.506 146.951 C 946.933 87.773, 657.363 10.459, 382.500 19.592 M 61.648 130.750 C 56.224 196.427, 55.295 217.720, 53.980 306.500 C 52.798 386.274, 52.321 394.527, 42.534 504.500 C 37.193 564.518, 35.515 602.087, 34.515 684 C 34.196 710.125, 33.236 756.025, 32.380 786 C 25.739 1018.627, 34.221 1099.697, 70.511 1150.483 C 103.578 1196.758, 133.526 1210.417, 212 1215.016 C 222.175 1215.613, 249.175 1217.420, 272 1219.032 C 352.010 1224.685, 384.980 1225.641, 446 1224.078 C 542.461 1221.607, 562.334 1220.902, 581.500 1219.272 C 597.375 1217.922, 614.391 1217.549, 664 1217.465 C 748.563 1217.320, 758.393 1215.519, 787.422 1194.852 C 825.627 1167.653, 846.542 1127.842, 857.971 1060.567 C 865.592 1015.706, 865.812 1009.816, 869.011 764.500 C 870.124 679.132, 870.889 651.064, 873.702 592.500 C 876.366 537.022, 876.091 445.842, 873.051 376.500 C 869.483 295.110, 869.689 224.786, 873.655 170.633 L 874.305 161.766 864.902 166.793 C 705.230 252.164, 207.954 230.239, 73.961 131.921 C 70.364 129.282, 66.582 126.195, 65.556 125.061 C 62.692 121.897, 62.336 122.415, 61.648 130.750 M 945 331.080 C 930.064 332.474, 912.348 336.835, 899.750 342.217 L 895 344.246 895 374.732 L 895 405.217 897.567 404.573 C 961.113 388.623, 1032.519 430.955, 1069.498 506.500 C 1153.293 677.683, 1058.856 911.147, 903.500 916.873 L 886.500 917.500 885.832 950.500 C 885.464 968.650, 884.970 986.754, 884.733 990.731 C 884.240 999.019, 883.100 998.060, 896.500 1000.640 C 1002.672 1021.088, 1117.288 901.349, 1150.058 735.748 C 1192.593 520.795, 1089.618 317.580, 945 331.080 M 900.750 424.684 L 896 425.110 895.996 467.805 C 895.992 516.136, 895.211 551.661, 891.047 693 C 889.435 747.725, 887.818 816.259, 887.454 845.298 L 886.792 898.096 892.146 897.472 C 1111.192 871.913, 1149.152 469.379, 936.500 427.133 C 926.245 425.096, 909.196 423.928, 900.750 424.684" stroke="none" fill="#000000" fill-rule="evenodd"/><path d="M 128.944 162.143 C 128.889 162.498, 128.166 185.541, 126.048 254.500 C 125.439 274.300, 124.457 302.425, 123.864 317 C 123.271 331.575, 122.610 364.875, 122.395 391 C 121.883 453.338, 121.361 463.550, 114.043 554.500 C 106.515 648.064, 103.418 701.664, 100.061 796.500 C 97.404 871.533, 97.988 1022.922, 101.016 1044.500 C 105.300 1075.018, 130.030 1113.676, 151.666 1123.672 C 183.164 1138.225, 254.497 1152.279, 311 1155.063 C 322.825 1155.646, 338.125 1156.457, 345 1156.867 C 351.875 1157.276, 359.075 1157.220, 361 1156.742 C 366.444 1155.390, 505.496 1153.982, 671.500 1153.599 C 845.589 1153.198, 825.978 1154.869, 833.324 1139.812 C 852.244 1101.032, 862.302 1048.442, 864.942 974.500 C 865.848 949.129, 866.171 926.169, 867.548 789.500 C 868.131 731.591, 870.298 642.247, 871.998 606 C 875.387 533.781, 875.839 477.314, 873.516 416.500 C 868.389 282.265, 868.108 236.288, 872.074 180.649 C 873.329 163.029, 874.003 164.251, 865.452 168.638 C 725.295 240.556, 312.011 237.107, 130.750 162.506 C 129.787 162.110, 128.975 161.947, 128.944 162.143 M 942 333.049 C 931.886 333.956, 913.660 338.255, 903.087 342.228 L 896.673 344.637 896.781 370.569 C 896.922 404.424, 896.884 403.189, 897.750 402.656 C 898.163 402.401, 903.675 401.663, 910 401.014 C 1037.235 387.968, 1129.303 546.441, 1094.445 718.490 C 1092.997 725.635, 1091.405 732.243, 1090.907 733.175 C 1090.408 734.106, 1090 735.754, 1090 736.837 C 1090 745.189, 1071.250 792.033, 1060.315 811 C 1051.791 825.786, 1049.703 828.996, 1040.881 840.885 C 1002.912 892.052, 948.580 921.622, 898.489 918.384 C 885.933 917.572, 887.141 914.149, 886.971 951 C 886.899 966.675, 886.763 983.547, 886.670 988.493 L 886.500 997.486 894.500 999.250 C 999.188 1022.341, 1120.362 894.863, 1149.009 731.500 C 1153.369 706.637, 1154.483 698.681, 1156.079 681 C 1173.930 483.247, 1074.225 321.193, 942 333.049 M 461.364 392.221 C 458.116 393.716, 456.783 397.487, 457.966 401.833 C 458.931 405.378, 466.020 414.135, 541.813 505.413 C 553.191 519.115, 568.864 538.015, 576.642 547.413 C 633.042 615.560, 622.739 611.525, 651.627 576.780 C 663.188 562.876, 697.363 521.851, 727.573 485.613 C 757.783 449.376, 784.467 417.201, 786.872 414.113 C 789.277 411.026, 792.338 407.200, 793.674 405.611 C 796.879 401.802, 796.570 396.451, 793 393.941 C 790.079 391.888, 465.743 390.205, 461.364 392.221 M 247.500 396.139 L 200.500 396.958 197.764 399.979 C 196.259 401.641, 194.347 403, 193.514 403 C 191.011 403, 188 406.803, 188 409.965 C 188 412.361, 192.273 418.064, 210.287 439.715 C 222.546 454.447, 243.792 480, 257.503 496.500 C 271.213 513, 305.820 554.625, 334.408 589 C 362.995 623.375, 392.923 659.375, 400.913 669 C 408.904 678.625, 440.887 717.100, 471.987 754.500 C 503.087 791.900, 540.675 837.115, 555.516 854.979 C 570.357 872.842, 593.010 900.067, 605.855 915.479 C 618.700 930.890, 630.227 945.082, 631.469 947.015 C 635.818 953.781, 629.909 953.462, 707.251 951.117 C 745.888 949.945, 780.723 948.870, 784.662 948.728 C 798.108 948.243, 799.685 942.882, 789.693 931.613 C 786.225 927.701, 773.491 912.575, 761.397 898 C 749.302 883.425, 723.700 852.600, 704.502 829.500 C 685.305 806.400, 657.630 773.100, 643.003 755.500 C 628.377 737.900, 604.073 708.650, 588.996 690.500 C 573.919 672.350, 544.934 637.475, 524.586 613 C 443.015 514.888, 386.442 446.769, 365.129 421 C 357.168 411.375, 348.838 401.587, 346.619 399.250 L 342.584 395 318.542 395.160 C 305.319 395.248, 273.350 395.688, 247.500 396.139 M 349.196 734.750 C 348.082 735.712, 335.994 749.825, 322.335 766.112 C 294.001 799.897, 267.591 831.326, 219.572 888.408 C 171.285 945.808, 152.760 938.807, 355.176 939.659 C 556.089 940.505, 540.274 954.431, 455.169 851.606 C 436.692 829.281, 405.992 792.106, 381.996 763 C 354.563 729.724, 354.789 729.918, 349.196 734.750" stroke="none" fill="#1578e4" fill-rule="evenodd"/><path d="M 61.648 130.750 C 56.224 196.427, 55.295 217.720, 53.980 306.500 C 52.798 386.274, 52.321 394.527, 42.534 504.500 C 37.193 564.518, 35.515 602.087, 34.515 684 C 34.196 710.125, 33.236 756.025, 32.380 786 C 25.739 1018.627, 34.221 1099.697, 70.511 1150.483 C 103.578 1196.758, 133.526 1210.417, 212 1215.016 C 222.175 1215.613, 249.175 1217.420, 272 1219.032 C 352.010 1224.685, 384.980 1225.641, 446 1224.078 C 542.461 1221.607, 562.334 1220.902, 581.500 1219.272 C 597.375 1217.922, 614.391 1217.549, 664 1217.465 C 764.495 1217.293, 788.603 1208.346, 823.806 1158.161 L 828.037 1152.129 824.769 1153.163 C 822.603 1153.849, 772.580 1154.324, 676.500 1154.571 C 513.135 1154.992, 366.183 1156.448, 361.129 1157.697 C 359.274 1158.155, 353.199 1158.210, 347.629 1157.820 C 342.058 1157.429, 326.700 1156.638, 313.500 1156.061 C 253.198 1153.425, 174.427 1137.590, 148 1122.791 C 127.142 1111.111, 104 1073.430, 100.082 1044.771 C 92.687 990.670, 98.873 728.203, 111.048 579.500 C 119.852 471.981, 120.994 452.761, 121.022 411.639 C 121.034 393.963, 121.477 366.675, 122.005 351 C 122.534 335.325, 123.420 305.850, 123.974 285.500 C 124.528 265.150, 125.417 236.800, 125.950 222.500 C 126.483 208.200, 127.180 188.400, 127.500 178.500 L 128.081 160.500 118.114 156.161 C 97.977 147.395, 71.692 131.842, 65.556 125.061 C 62.692 121.897, 62.336 122.415, 61.648 130.750 M 864.500 167.024 C 859.550 169.745, 855.950 171.971, 856.500 171.972 C 857.652 171.972, 872.027 164.295, 873.450 162.919 C 875.102 161.321, 873.730 161.951, 864.500 167.024 M 482.776 219.733 C 485.128 219.945, 488.728 219.942, 490.776 219.727 C 492.824 219.512, 490.900 219.339, 486.500 219.343 C 482.100 219.346, 480.424 219.522, 482.776 219.733 M 574.776 219.733 C 577.128 219.945, 580.728 219.942, 582.776 219.727 C 584.824 219.512, 582.900 219.339, 578.500 219.343 C 574.100 219.346, 572.424 219.522, 574.776 219.733 M 870.349 229 C 870.349 233.675, 870.522 235.588, 870.732 233.250 C 870.943 230.912, 870.943 227.088, 870.732 224.750 C 870.522 222.412, 870.349 224.325, 870.349 229 M 870.365 308.500 C 870.368 314, 870.536 316.122, 870.738 313.216 C 870.941 310.311, 870.939 305.811, 870.734 303.216 C 870.528 300.622, 870.363 303, 870.365 308.500 M 964.750 331.723 C 966.538 331.945, 969.462 331.945, 971.250 331.723 C 973.038 331.502, 971.575 331.320, 968 331.320 C 964.425 331.320, 962.962 331.502, 964.750 331.723 M 988.485 334.735 C 989.577 335.011, 992.389 335.815, 994.733 336.520 C 997.078 337.226, 998.780 337.453, 998.515 337.025 C 997.975 336.150, 989.826 333.937, 987.807 334.116 C 987.088 334.180, 987.393 334.458, 988.485 334.735 M 871.328 343.500 C 871.333 347.350, 871.513 348.802, 871.730 346.728 C 871.946 344.653, 871.943 341.503, 871.722 339.728 C 871.501 337.952, 871.324 339.650, 871.328 343.500 M 1029.370 350.196 C 1030.398 350.913, 1035.798 354.488, 1041.370 358.140 C 1046.941 361.791, 1055.325 368.011, 1060 371.961 C 1068.024 378.741, 1068.136 378.801, 1062 373.033 C 1054.680 366.151, 1040.640 355.909, 1032.751 351.696 C 1029.863 350.154, 1028.341 349.479, 1029.370 350.196 M 895.231 380.295 L 895 405.091 898.750 404.413 C 903.693 403.519, 904.572 402.552, 899.768 403.293 L 896.035 403.869 895.749 379.684 L 895.463 355.500 895.231 380.295 M 872.320 370 C 872.320 373.575, 872.502 375.038, 872.723 373.250 C 872.945 371.462, 872.945 368.538, 872.723 366.750 C 872.502 364.962, 872.320 366.425, 872.320 370 M 1076.520 387.917 C 1085.868 398.217, 1095.267 410.645, 1103.224 423.225 C 1112.782 438.338, 1113.325 439.123, 1111.365 435 C 1106.047 423.813, 1088.794 400.047, 1077.816 388.787 C 1071.211 382.013, 1071.085 381.928, 1076.520 387.917 M 873.320 396 C 873.320 399.575, 873.502 401.038, 873.723 399.250 C 873.945 397.462, 873.945 394.538, 873.723 392.750 C 873.502 390.962, 873.320 392.425, 873.320 396 M 329.280 395.736 C 331.909 395.943, 335.959 395.940, 338.280 395.731 C 340.601 395.521, 338.450 395.352, 333.500 395.355 C 328.550 395.358, 326.651 395.530, 329.280 395.736 M 264.750 396.723 C 266.538 396.945, 269.462 396.945, 271.250 396.723 C 273.038 396.502, 271.575 396.320, 268 396.320 C 264.425 396.320, 262.962 396.502, 264.750 396.723 M 918.250 401.739 C 921.413 401.937, 926.587 401.937, 929.750 401.739 C 932.913 401.541, 930.325 401.378, 924 401.378 C 917.675 401.378, 915.087 401.541, 918.250 401.739 M 874.336 422 C 874.336 426.125, 874.513 427.813, 874.728 425.750 C 874.944 423.688, 874.944 420.313, 874.728 418.250 C 874.513 416.188, 874.336 417.875, 874.336 422 M 991.274 419.348 C 1028.885 441.355, 1058.713 477.304, 1077.054 522.729 C 1078.881 527.254, 1080.546 530.788, 1080.753 530.580 C 1082.052 529.282, 1067.764 499.446, 1059.260 485.700 C 1040.362 455.148, 1005.660 422.125, 985.424 415.435 C 984.366 415.085, 986.999 416.846, 991.274 419.348 M 1117.212 447.462 C 1119.520 452.117, 1121.570 455.763, 1121.767 455.566 C 1122.212 455.122, 1114.162 439, 1113.496 439 C 1113.231 439, 1114.903 442.808, 1117.212 447.462 M 875.400 462.500 C 875.401 470.750, 875.556 473.992, 875.744 469.704 C 875.932 465.417, 875.931 458.667, 875.742 454.704 C 875.552 450.742, 875.399 454.250, 875.400 462.500 M 1140.084 503.500 C 1140.053 504.050, 1140.910 507.200, 1141.989 510.500 C 1143.067 513.800, 1143.679 514.941, 1143.348 513.036 C 1142.690 509.241, 1140.175 501.896, 1140.084 503.500 M 875.378 528 C 875.378 534.325, 875.541 536.913, 875.739 533.750 C 875.937 530.587, 875.937 525.413, 875.739 522.250 C 875.541 519.087, 875.378 521.675, 875.378 528 M 1144.025 517.583 C 1144.073 519.384, 1148.821 536.474, 1148.909 535.167 C 1149.012 533.654, 1145.053 517.723, 1144.416 517.083 C 1144.187 516.854, 1144.011 517.079, 1144.025 517.583 M 1081.019 532.250 C 1081.127 533.632, 1088.898 556.175, 1088.941 555.232 C 1089.016 553.608, 1082.049 532, 1081.450 532 C 1081.202 532, 1081.009 532.112, 1081.019 532.250 M 874.328 563.500 C 874.333 567.350, 874.513 568.802, 874.730 566.728 C 874.946 564.653, 874.943 561.503, 874.722 559.728 C 874.501 557.952, 874.324 559.650, 874.328 563.500 M 1093.183 574 C 1093.163 574.825, 1094.002 579.775, 1095.048 585 C 1096.346 591.481, 1096.784 592.752, 1096.429 589 C 1095.904 583.459, 1093.254 571.210, 1093.183 574 M 1158.320 607 C 1158.320 610.575, 1158.502 612.038, 1158.723 610.250 C 1158.945 608.462, 1158.945 605.538, 1158.723 603.750 C 1158.502 601.962, 1158.320 603.425, 1158.320 607 M 1159.407 636 C 1159.407 645.075, 1159.559 648.788, 1159.744 644.250 C 1159.929 639.712, 1159.929 632.288, 1159.744 627.750 C 1159.559 623.212, 1159.407 626.925, 1159.407 636 M 1100.423 643.500 C 1100.424 655.050, 1100.570 659.638, 1100.747 653.696 C 1100.924 647.753, 1100.923 638.303, 1100.745 632.696 C 1100.567 627.088, 1100.422 631.950, 1100.423 643.500 M 871.328 635.500 C 871.333 639.350, 871.513 640.802, 871.730 638.728 C 871.946 636.653, 871.943 633.503, 871.722 631.728 C 871.501 629.952, 871.324 631.650, 871.328 635.500 M 1158.355 663.500 C 1158.352 668.450, 1158.521 670.601, 1158.731 668.280 C 1158.940 665.959, 1158.943 661.909, 1158.736 659.280 C 1158.530 656.651, 1158.358 658.550, 1158.355 663.500 M 870.343 666.500 C 870.346 670.900, 870.522 672.576, 870.733 670.224 C 870.945 667.872, 870.942 664.272, 870.727 662.224 C 870.512 660.176, 870.339 662.100, 870.343 666.500 M 1099.328 672.500 C 1099.333 676.350, 1099.513 677.802, 1099.730 675.728 C 1099.946 673.653, 1099.943 670.503, 1099.722 668.728 C 1099.501 666.952, 1099.324 668.650, 1099.328 672.500 M 869.378 707 C 869.378 713.325, 869.541 715.913, 869.739 712.750 C 869.937 709.587, 869.937 704.413, 869.739 701.250 C 869.541 698.087, 869.378 700.675, 869.378 707 M 1092.606 718.013 C 1091.565 723.166, 1090.486 728.309, 1090.209 729.441 C 1089.932 730.574, 1089.973 731.260, 1090.302 730.967 C 1091.187 730.177, 1095.128 711.903, 1094.790 710.151 C 1094.631 709.323, 1093.648 712.860, 1092.606 718.013 M 1150.687 727.051 C 1149.718 732.665, 1149.111 737.444, 1149.337 737.671 C 1149.916 738.250, 1153.259 719.276, 1152.813 717.939 C 1152.612 717.336, 1151.655 721.437, 1150.687 727.051 M 1088.079 737.034 C 1088.036 737.877, 1085.999 744.839, 1083.553 752.503 C 1081.106 760.167, 1079.278 766.612, 1079.490 766.824 C 1080.184 767.517, 1089.176 738.022, 1088.660 736.744 C 1088.326 735.917, 1088.131 736.013, 1088.079 737.034 M 1146.218 749.120 C 1144.971 754.710, 1144.127 759.461, 1144.344 759.677 C 1144.900 760.233, 1149.225 741.175, 1148.819 739.958 C 1148.636 739.407, 1147.465 743.530, 1146.218 749.120 M 868.407 768 C 868.407 777.075, 868.559 780.788, 868.744 776.250 C 868.929 771.712, 868.929 764.288, 868.744 759.750 C 868.559 755.212, 868.407 758.925, 868.407 768 M 1137.681 781.119 C 1136.154 786.135, 1135.100 790.434, 1135.339 790.672 C 1135.739 791.072, 1138.963 781.209, 1140.544 774.750 C 1142.030 768.676, 1140.291 772.546, 1137.681 781.119 M 1073.216 780.699 C 1072.657 782.240, 1070.099 788, 1067.530 793.500 C 1064.961 799, 1063.305 803.050, 1063.851 802.500 C 1065.337 801.003, 1075.275 778.941, 1074.715 778.382 C 1074.449 778.116, 1073.774 779.158, 1073.216 780.699 M 1058.478 810.750 C 1041.055 842.493, 1011.826 874.864, 985.247 891.854 C 982.361 893.699, 980 895.438, 980 895.719 C 980 900.037, 1015.421 870.017, 1029.147 854.067 C 1041.629 839.563, 1065.450 804, 1062.684 804 C 1062.409 804, 1060.516 807.038, 1058.478 810.750 M 1124.684 818.684 C 1123.226 822.359, 1122.195 825.528, 1122.393 825.726 C 1122.591 825.924, 1123.954 823.087, 1125.421 819.421 C 1126.889 815.755, 1127.920 812.586, 1127.712 812.379 C 1127.505 812.172, 1126.142 815.009, 1124.684 818.684 M 1115.695 839.550 C 1112.023 847.036, 1112.362 847.923, 1116.115 840.650 C 1117.775 837.432, 1118.966 834.633, 1118.761 834.428 C 1118.557 834.223, 1117.177 836.528, 1115.695 839.550 M 867.441 865.500 C 867.442 881.450, 867.580 887.835, 867.748 879.689 C 867.916 871.543, 867.916 858.493, 867.747 850.689 C 867.579 842.885, 867.441 849.550, 867.441 865.500 M 1106.595 858.340 C 1082.432 904.007, 1052.896 940.140, 1019.010 965.492 C 1011.581 971.050, 1009.314 972.986, 1012 971.479 C 1027.292 962.894, 1057.587 933.317, 1075.483 909.500 C 1088.268 892.484, 1114.456 849.102, 1112.879 847.552 C 1112.670 847.347, 1109.843 852.202, 1106.595 858.340 M 970.500 900.223 C 967.200 901.943, 960.225 905.059, 955 907.148 C 949.775 909.237, 946.051 910.958, 946.724 910.973 C 949.641 911.037, 977 898.851, 977 897.487 C 977 896.816, 977.199 896.732, 970.500 900.223 M 900.500 916.957 L 886.500 917.500 886.450 929.252 L 886.400 941.003 886.732 929.502 L 887.063 918 899.782 917.901 C 906.777 917.847, 914.975 917.460, 918 917.042 C 924.724 916.112, 922.538 916.102, 900.500 916.957 M 866.385 947 C 866.385 953.875, 866.545 956.688, 866.740 953.250 C 866.936 949.813, 866.936 944.188, 866.740 940.750 C 866.545 937.313, 866.385 940.125, 866.385 947 M 462.750 939.748 C 472.238 939.913, 487.762 939.913, 497.250 939.748 C 506.738 939.584, 498.975 939.450, 480 939.450 C 461.025 939.450, 453.262 939.584, 462.750 939.748 M 885.395 978.500 C 885.396 986.200, 885.553 989.218, 885.743 985.206 C 885.934 981.195, 885.932 974.895, 885.741 971.206 C 885.549 967.518, 885.393 970.800, 885.395 978.500 M 1003 976.161 C 997.623 979.525, 986.447 985.184, 972 991.856 L 969.500 993.011 972 992.408 C 978.372 990.872, 1010 974.243, 1010 972.429 C 1010 971.783, 1009.978 971.795, 1003 976.161 M 949.500 998.541 L 944.500 999.890 949 999.318 C 951.475 999.003, 954.400 998.381, 955.500 997.936 C 958.618 996.675, 955.104 997.029, 949.500 998.541 M 915.776 1002.733 C 918.128 1002.945, 921.728 1002.942, 923.776 1002.727 C 925.824 1002.512, 923.900 1002.339, 919.500 1002.343 C 915.100 1002.346, 913.424 1002.522, 915.776 1002.733" stroke="none" fill="#195a9d" fill-rule="evenodd"/><path d="M 128.944 162.143 C 128.889 162.498, 128.166 185.541, 126.048 254.500 C 125.439 274.300, 124.457 302.425, 123.864 317 C 123.271 331.575, 122.610 364.875, 122.395 391 C 121.883 453.338, 121.361 463.550, 114.043 554.500 C 106.515 648.064, 103.418 701.664, 100.061 796.500 C 97.404 871.533, 97.988 1022.922, 101.016 1044.500 C 105.300 1075.018, 130.030 1113.676, 151.666 1123.672 C 183.164 1138.225, 254.497 1152.279, 311 1155.063 C 322.825 1155.646, 338.125 1156.457, 345 1156.867 C 351.875 1157.276, 359.075 1157.220, 361 1156.742 C 366.444 1155.390, 505.496 1153.982, 671.500 1153.599 C 845.589 1153.198, 825.978 1154.869, 833.324 1139.812 C 852.244 1101.032, 862.302 1048.442, 864.942 974.500 C 865.848 949.129, 866.171 926.169, 867.548 789.500 C 868.131 731.591, 870.298 642.247, 871.998 606 C 875.387 533.781, 875.839 477.314, 873.516 416.500 C 868.389 282.265, 868.108 236.288, 872.074 180.649 C 873.329 163.029, 874.003 164.251, 865.452 168.638 C 725.295 240.556, 312.011 237.107, 130.750 162.506 C 129.787 162.110, 128.975 161.947, 128.944 162.143 M 942 333.049 C 931.886 333.956, 913.660 338.255, 903.087 342.228 L 896.673 344.637 896.781 370.569 C 896.922 404.424, 896.884 403.189, 897.750 402.656 C 898.163 402.401, 903.675 401.663, 910 401.014 C 1037.235 387.968, 1129.303 546.441, 1094.445 718.490 C 1092.997 725.635, 1091.405 732.243, 1090.907 733.175 C 1090.408 734.106, 1090 735.754, 1090 736.837 C 1090 745.189, 1071.250 792.033, 1060.315 811 C 1051.791 825.786, 1049.703 828.996, 1040.881 840.885 C 1002.912 892.052, 948.580 921.622, 898.489 918.384 C 885.933 917.572, 887.141 914.149, 886.971 951 C 886.899 966.675, 886.763 983.547, 886.670 988.493 L 886.500 997.486 894.500 999.250 C 999.188 1022.341, 1120.362 894.863, 1149.009 731.500 C 1153.369 706.637, 1154.483 698.681, 1156.079 681 C 1173.930 483.247, 1074.225 321.193, 942 333.049 M 461.364 392.221 C 458.116 393.716, 456.783 397.487, 457.966 401.833 C 458.931 405.378, 466.020 414.135, 541.813 505.413 C 553.191 519.115, 568.864 538.015, 576.642 547.413 C 633.042 615.560, 622.739 611.525, 651.627 576.780 C 663.188 562.876, 697.363 521.851, 727.573 485.613 C 757.783 449.376, 784.467 417.201, 786.872 414.113 C 789.277 411.026, 792.338 407.200, 793.674 405.611 C 796.879 401.802, 796.570 396.451, 793 393.941 C 790.079 391.888, 465.743 390.205, 461.364 392.221 M 247.500 396.139 L 200.500 396.958 197.764 399.979 C 196.259 401.641, 194.347 403, 193.514 403 C 191.011 403, 188 406.803, 188 409.965 C 188 412.361, 192.273 418.064, 210.287 439.715 C 222.546 454.447, 243.792 480, 257.503 496.500 C 271.213 513, 305.820 554.625, 334.408 589 C 362.995 623.375, 392.923 659.375, 400.913 669 C 408.904 678.625, 440.887 717.100, 471.987 754.500 C 503.087 791.900, 540.675 837.115, 555.516 854.979 C 570.357 872.842, 593.010 900.067, 605.855 915.479 C 618.700 930.890, 630.227 945.082, 631.469 947.015 C 635.818 953.781, 629.909 953.462, 707.251 951.117 C 745.888 949.945, 780.723 948.870, 784.662 948.728 C 798.108 948.243, 799.685 942.882, 789.693 931.613 C 786.225 927.701, 773.491 912.575, 761.397 898 C 749.302 883.425, 723.700 852.600, 704.502 829.500 C 685.305 806.400, 657.630 773.100, 643.003 755.500 C 628.377 737.900, 604.073 708.650, 588.996 690.500 C 573.919 672.350, 544.934 637.475, 524.586 613 C 443.015 514.888, 386.442 446.769, 365.129 421 C 357.168 411.375, 348.838 401.587, 346.619 399.250 L 342.584 395 318.542 395.160 C 305.319 395.248, 273.350 395.688, 247.500 396.139 M 349.196 734.750 C 348.082 735.712, 335.994 749.825, 322.335 766.112 C 294.001 799.897, 267.591 831.326, 219.572 888.408 C 171.285 945.808, 152.760 938.807, 355.176 939.659 C 556.089 940.505, 540.274 954.431, 455.169 851.606 C 436.692 829.281, 405.992 792.106, 381.996 763 C 354.563 729.724, 354.789 729.918, 349.196 734.750" stroke="none" fill="#1578e4" fill-rule="evenodd"/><path d="M 127.336 203 C 127.336 207.125, 127.513 208.813, 127.728 206.750 C 127.944 204.688, 127.944 201.313, 127.728 199.250 C 127.513 197.188, 127.336 198.875, 127.336 203 M 503.728 220.722 C 505.503 220.943, 508.653 220.946, 510.728 220.730 C 512.802 220.513, 511.350 220.333, 507.500 220.328 C 503.650 220.324, 501.952 220.501, 503.728 220.722 M 547.789 220.741 C 551.248 220.937, 556.648 220.936, 559.789 220.738 C 562.930 220.540, 560.100 220.380, 553.500 220.382 C 546.900 220.384, 544.330 220.546, 547.789 220.741 M 126.328 228.500 C 126.333 232.350, 126.513 233.802, 126.730 231.728 C 126.946 229.653, 126.943 226.503, 126.722 224.728 C 126.501 222.952, 126.324 224.650, 126.328 228.500 M 869.444 269 C 869.444 285.775, 869.581 292.637, 869.748 284.250 C 869.915 275.863, 869.915 262.137, 869.748 253.750 C 869.581 245.363, 869.444 252.225, 869.444 269 M 125.355 257.500 C 125.352 262.450, 125.521 264.601, 125.731 262.280 C 125.940 259.959, 125.943 255.909, 125.736 253.280 C 125.530 250.651, 125.358 252.550, 125.355 257.500 M 124.365 297.500 C 124.368 303, 124.536 305.122, 124.738 302.216 C 124.941 299.311, 124.939 294.811, 124.734 292.216 C 124.528 289.622, 124.363 292, 124.365 297.500 M 123.320 328 C 123.320 331.575, 123.502 333.038, 123.723 331.250 C 123.945 329.462, 123.945 326.538, 123.723 324.750 C 123.502 322.962, 123.320 324.425, 123.320 328 M 122.320 350 C 122.320 353.575, 122.502 355.038, 122.723 353.250 C 122.945 351.462, 122.945 348.538, 122.723 346.750 C 122.502 344.962, 122.320 346.425, 122.320 350 M 896.400 377.500 C 896.401 385.750, 896.556 388.992, 896.744 384.704 C 896.932 380.417, 896.931 373.667, 896.742 369.704 C 896.552 365.742, 896.399 369.250, 896.400 377.500 M 483.250 391.749 C 494.663 391.909, 513.338 391.909, 524.750 391.749 C 536.163 391.588, 526.825 391.457, 504 391.457 C 481.175 391.457, 471.838 391.588, 483.250 391.749 M 300.206 395.741 C 303.895 395.932, 310.195 395.934, 314.206 395.743 C 318.218 395.553, 315.200 395.396, 307.500 395.395 C 299.800 395.393, 296.518 395.549, 300.206 395.741 M 234.776 396.733 C 237.128 396.945, 240.728 396.942, 242.776 396.727 C 244.824 396.512, 242.900 396.339, 238.500 396.343 C 234.100 396.346, 232.424 396.522, 234.776 396.733 M 918.250 400.728 C 920.313 400.944, 923.688 400.944, 925.750 400.728 C 927.813 400.513, 926.125 400.336, 922 400.336 C 917.875 400.336, 916.188 400.513, 918.250 400.728 M 121.336 444 C 121.336 448.125, 121.513 449.813, 121.728 447.750 C 121.944 445.688, 121.944 442.313, 121.728 440.250 C 121.513 438.188, 121.336 439.875, 121.336 444 M 1029 446.500 C 1032.543 450.075, 1035.667 453, 1035.942 453 C 1036.217 453, 1033.543 450.075, 1030 446.500 C 1026.457 442.925, 1023.333 440, 1023.058 440 C 1022.783 440, 1025.457 442.925, 1029 446.500 M 1101.392 636 C 1101.392 643.425, 1101.549 646.462, 1101.742 642.750 C 1101.934 639.038, 1101.934 632.962, 1101.742 629.250 C 1101.549 625.538, 1101.392 628.575, 1101.392 636 M 1158.355 641.500 C 1158.352 646.450, 1158.521 648.601, 1158.731 646.280 C 1158.940 643.959, 1158.943 639.909, 1158.736 637.280 C 1158.530 634.651, 1158.358 636.550, 1158.355 641.500 M 868.370 729 C 868.370 734.775, 868.535 737.138, 868.737 734.250 C 868.939 731.362, 868.939 726.638, 868.737 723.750 C 868.535 720.862, 868.370 723.225, 868.370 729 M 100.328 777.500 C 100.333 781.350, 100.513 782.802, 100.730 780.728 C 100.946 778.653, 100.943 775.503, 100.722 773.728 C 100.501 771.952, 100.324 773.650, 100.328 777.500 M 867.422 805 C 867.422 816.275, 867.568 820.888, 867.746 815.250 C 867.924 809.612, 867.924 800.388, 867.746 794.750 C 867.568 789.112, 867.422 793.725, 867.422 805 M 99.328 802.500 C 99.333 806.350, 99.513 807.802, 99.730 805.728 C 99.946 803.653, 99.943 800.503, 99.722 798.728 C 99.501 796.952, 99.324 798.650, 99.328 802.500 M 98.462 878 C 98.462 904.125, 98.591 914.813, 98.749 901.750 C 98.907 888.688, 98.907 867.313, 98.749 854.250 C 98.591 841.188, 98.462 851.875, 98.462 878 M 1018.479 866.250 L 1009.500 875.500 1018.750 866.521 C 1023.837 861.582, 1028 857.420, 1028 857.271 C 1028 856.545, 1026.819 857.659, 1018.479 866.250 M 866.382 912.500 C 866.384 919.100, 866.546 921.670, 866.741 918.211 C 866.937 914.752, 866.936 909.352, 866.738 906.211 C 866.540 903.070, 866.380 905.900, 866.382 912.500 M 903.750 918.723 C 905.538 918.945, 908.462 918.945, 910.250 918.723 C 912.038 918.502, 910.575 918.320, 907 918.320 C 903.425 918.320, 901.962 918.502, 903.750 918.723 M 1045.985 940.750 L 1033.500 953.500 1046.250 941.015 C 1058.093 929.418, 1059.453 928, 1058.735 928 C 1058.589 928, 1052.852 933.737, 1045.985 940.750 M 324.250 939.750 C 342.813 939.902, 373.188 939.902, 391.750 939.750 C 410.313 939.597, 395.125 939.472, 358 939.472 C 320.875 939.472, 305.688 939.597, 324.250 939.750 M 865.320 965 C 865.320 968.575, 865.502 970.038, 865.723 968.250 C 865.945 966.462, 865.945 963.538, 865.723 961.750 C 865.502 959.962, 865.320 961.425, 865.320 965 M 886.360 972 C 886.360 977.225, 886.529 979.362, 886.735 976.750 C 886.941 974.138, 886.941 969.862, 886.735 967.250 C 886.529 964.638, 886.360 966.775, 886.360 972 M 98.355 1006.500 C 98.352 1011.450, 98.521 1013.601, 98.731 1011.280 C 98.940 1008.959, 98.943 1004.909, 98.736 1002.280 C 98.530 999.651, 98.358 1001.550, 98.355 1006.500 M 917.776 1001.733 C 920.128 1001.945, 923.728 1001.942, 925.776 1001.727 C 927.824 1001.512, 925.900 1001.339, 921.500 1001.343 C 917.100 1001.346, 915.424 1001.522, 917.776 1001.733 M 598.250 1153.742 C 601.962 1153.934, 608.038 1153.934, 611.750 1153.742 C 615.462 1153.549, 612.425 1153.392, 605 1153.392 C 597.575 1153.392, 594.538 1153.549, 598.250 1153.742 M 662.250 1153.739 C 665.413 1153.937, 670.587 1153.937, 673.750 1153.739 C 676.913 1153.541, 674.325 1153.378, 668 1153.378 C 661.675 1153.378, 659.087 1153.541, 662.250 1153.739 M 779.750 1153.740 C 783.188 1153.936, 788.813 1153.936, 792.250 1153.740 C 795.688 1153.545, 792.875 1153.385, 786 1153.385 C 779.125 1153.385, 776.313 1153.545, 779.750 1153.740 M 505.685 1154.748 C 515.138 1154.912, 530.888 1154.913, 540.685 1154.749 C 550.483 1154.585, 542.750 1154.451, 523.500 1154.450 C 504.250 1154.450, 496.233 1154.584, 505.685 1154.748 M 711.250 1154.747 C 718.263 1154.919, 729.737 1154.919, 736.750 1154.747 C 743.763 1154.575, 738.025 1154.435, 724 1154.435 C 709.975 1154.435, 704.237 1154.575, 711.250 1154.747 M 385.789 1155.741 C 389.248 1155.937, 394.648 1155.936, 397.789 1155.738 C 400.930 1155.540, 398.100 1155.380, 391.500 1155.382 C 384.900 1155.384, 382.330 1155.546, 385.789 1155.741" stroke="none" fill="#146fd3" fill-rule="evenodd"/><path d="M 455.750 20.723 C 457.538 20.945, 460.462 20.945, 462.250 20.723 C 464.038 20.502, 462.575 20.320, 459 20.320 C 455.425 20.320, 453.962 20.502, 455.750 20.723 M 536.206 405.741 C 539.895 405.932, 546.195 405.934, 550.206 405.743 C 554.218 405.553, 551.200 405.396, 543.500 405.395 C 535.800 405.393, 532.518 405.549, 536.206 405.741 M 711.250 406.728 C 713.313 406.944, 716.688 406.944, 718.750 406.728 C 720.813 406.513, 719.125 406.336, 715 406.336 C 710.875 406.336, 709.188 406.513, 711.250 406.728 M 259.250 921.735 C 261.863 921.941, 266.137 921.941, 268.750 921.735 C 271.363 921.529, 269.225 921.360, 264 921.360 C 258.775 921.360, 256.637 921.529, 259.250 921.735 M 317.750 922.737 C 320.637 922.939, 325.363 922.939, 328.250 922.737 C 331.137 922.535, 328.775 922.370, 323 922.370 C 317.225 922.370, 314.863 922.535, 317.750 922.737 M 376.287 923.740 C 379.469 923.939, 384.419 923.937, 387.287 923.736 C 390.154 923.535, 387.550 923.372, 381.500 923.374 C 375.450 923.376, 373.104 923.541, 376.287 923.740 M 437.750 924.732 C 440.087 924.943, 443.913 924.943, 446.250 924.732 C 448.587 924.522, 446.675 924.349, 442 924.349 C 437.325 924.349, 435.413 924.522, 437.750 924.732" stroke="none" fill="#c29c7a" fill-rule="evenodd"/><path d="M 127.370 186 C 127.370 191.775, 127.535 194.137, 127.737 191.250 C 127.939 188.363, 127.939 183.637, 127.737 180.750 C 127.535 177.863, 127.370 180.225, 127.370 186 M 126.320 216 C 126.320 219.575, 126.502 221.037, 126.723 219.250 C 126.945 217.463, 126.945 214.537, 126.723 212.750 C 126.502 210.963, 126.320 212.425, 126.320 216 M 520.750 220.743 C 524.737 220.932, 531.263 220.932, 535.250 220.743 C 539.237 220.553, 535.975 220.397, 528 220.397 C 520.025 220.397, 516.763 220.553, 520.750 220.743 M 125.336 242 C 125.336 246.125, 125.513 247.813, 125.728 245.750 C 125.944 243.688, 125.944 240.313, 125.728 238.250 C 125.513 236.188, 125.336 237.875, 125.336 242 M 124.374 277.500 C 124.376 283.550, 124.541 285.896, 124.740 282.713 C 124.939 279.531, 124.937 274.581, 124.736 271.713 C 124.535 268.846, 124.372 271.450, 124.374 277.500 M 123.343 314.500 C 123.346 318.900, 123.522 320.576, 123.733 318.224 C 123.945 315.872, 123.942 312.272, 123.727 310.224 C 123.512 308.176, 123.339 310.100, 123.343 314.500 M 121.450 403 C 121.450 421.975, 121.584 429.738, 121.748 420.250 C 121.913 410.762, 121.913 395.238, 121.748 385.750 C 121.584 376.262, 121.450 384.025, 121.450 403 M 249.750 396.732 C 252.088 396.943, 255.912 396.943, 258.250 396.732 C 260.587 396.522, 258.675 396.349, 254 396.349 C 249.325 396.349, 247.412 396.522, 249.750 396.732 M 875.422 497 C 875.422 508.275, 875.568 512.888, 875.746 507.250 C 875.924 501.613, 875.924 492.387, 875.746 486.750 C 875.568 481.113, 875.422 485.725, 875.422 497 M 868.328 745.500 C 868.333 749.350, 868.513 750.802, 868.730 748.728 C 868.946 746.653, 868.943 743.503, 868.722 741.728 C 868.501 739.952, 868.324 741.650, 868.328 745.500 M 100.320 765 C 100.320 768.575, 100.502 770.038, 100.723 768.250 C 100.945 766.462, 100.945 763.538, 100.723 761.750 C 100.502 759.962, 100.320 761.425, 100.320 765 M 99.328 789.500 C 99.333 793.350, 99.513 794.802, 99.730 792.728 C 99.946 790.653, 99.943 787.503, 99.722 785.728 C 99.501 783.952, 99.324 785.650, 99.328 789.500 M 98.343 823.500 C 98.346 827.900, 98.522 829.576, 98.733 827.224 C 98.945 824.872, 98.942 821.272, 98.727 819.224 C 98.512 817.176, 98.339 819.100, 98.343 823.500 M 867.320 831 C 867.320 834.575, 867.502 836.038, 867.723 834.250 C 867.945 832.462, 867.945 829.538, 867.723 827.750 C 867.502 825.962, 867.320 827.425, 867.320 831 M 97.455 959.500 C 97.455 980.950, 97.587 989.583, 97.749 978.684 C 97.911 967.785, 97.910 950.235, 97.748 939.684 C 97.587 929.133, 97.454 938.050, 97.455 959.500 M 1045.971 941.750 L 1039.500 948.500 1046.250 942.029 C 1052.520 936.018, 1053.457 935, 1052.721 935 C 1052.568 935, 1049.530 938.038, 1045.971 941.750 M 430.287 939.740 C 433.469 939.939, 438.419 939.937, 441.287 939.736 C 444.154 939.535, 441.550 939.372, 435.500 939.374 C 429.450 939.376, 427.104 939.541, 430.287 939.740 M 886.343 948.500 C 886.346 952.900, 886.522 954.576, 886.733 952.224 C 886.945 949.872, 886.942 946.272, 886.727 944.224 C 886.512 942.176, 886.339 944.100, 886.343 948.500 M 627.803 1153.746 C 633.470 1153.925, 642.470 1153.924, 647.803 1153.745 C 653.136 1153.565, 648.500 1153.419, 637.500 1153.420 C 626.500 1153.421, 622.136 1153.568, 627.803 1153.746 M 804.292 1153.742 C 808.027 1153.935, 813.877 1153.934, 817.292 1153.739 C 820.706 1153.545, 817.650 1153.387, 810.500 1153.389 C 803.350 1153.390, 800.556 1153.550, 804.292 1153.742 M 566.250 1154.745 C 571.063 1154.928, 578.938 1154.928, 583.750 1154.745 C 588.563 1154.561, 584.625 1154.411, 575 1154.411 C 565.375 1154.411, 561.438 1154.561, 566.250 1154.745 M 683.287 1154.740 C 686.469 1154.939, 691.419 1154.937, 694.287 1154.736 C 697.154 1154.535, 694.550 1154.372, 688.500 1154.374 C 682.450 1154.376, 680.104 1154.541, 683.287 1154.740 M 755.292 1154.742 C 759.027 1154.935, 764.877 1154.934, 768.292 1154.739 C 771.706 1154.545, 768.650 1154.387, 761.500 1154.389 C 754.350 1154.390, 751.556 1154.550, 755.292 1154.742 M 426.750 1155.749 C 440.087 1155.907, 461.913 1155.907, 475.250 1155.749 C 488.587 1155.592, 477.675 1155.463, 451 1155.463 C 424.325 1155.463, 413.413 1155.592, 426.750 1155.749 M 321.750 1156.723 C 323.538 1156.945, 326.462 1156.945, 328.250 1156.723 C 330.038 1156.502, 328.575 1156.320, 325 1156.320 C 321.425 1156.320, 319.962 1156.502, 321.750 1156.723" stroke="none" fill="#1862ad" fill-rule="evenodd"/></svg>